ISO-10303-21;
HEADER;
FILE_DESCRIPTION(('FreeCAD Model'),'2;1');
FILE_NAME('Open CASCADE Shape Model','2026-03-21T23:32:57',('Author'),(
    ''),'Open CASCADE STEP processor 7.8','FreeCAD','Unknown');
FILE_SCHEMA(('AUTOMOTIVE_DESIGN { 1 0 10303 214 1 1 1 1 }'));
ENDSEC;
DATA;
#1 = APPLICATION_PROTOCOL_DEFINITION('international standard',
  'automotive_design',2000,#2);
#2 = APPLICATION_CONTEXT(
  'core data for automotive mechanical design processes');
#3 = SHAPE_DEFINITION_REPRESENTATION(#4,#10);
#4 = PRODUCT_DEFINITION_SHAPE('','',#5);
#5 = PRODUCT_DEFINITION('design','',#6,#9);
#6 = PRODUCT_DEFINITION_FORMATION('','',#7);
#7 = PRODUCT('Fusion','Fusion','',(#8));
#8 = PRODUCT_CONTEXT('',#2,'mechanical');
#9 = PRODUCT_DEFINITION_CONTEXT('part definition',#2,'design');
#10 = ADVANCED_BREP_SHAPE_REPRESENTATION('',(#11,#15),#865);
#11 = AXIS2_PLACEMENT_3D('',#12,#13,#14);
#12 = CARTESIAN_POINT('',(0.,0.,0.));
#13 = DIRECTION('',(0.,0.,1.));
#14 = DIRECTION('',(1.,0.,-0.));
#15 = MANIFOLD_SOLID_BREP('',#16);
#16 = CLOSED_SHELL('',(#17,#57,#88,#248,#272,#289,#301,#332,#388,#444,
    #461,#492,#516,#540,#557,#588,#612,#636,#653,#684,#708,#732,#749,
    #766,#783,#800,#817,#829,#841,#853));
#17 = ADVANCED_FACE('',(#18),#52,.F.);
#18 = FACE_BOUND('',#19,.F.);
#19 = EDGE_LOOP('',(#20,#30,#38,#46));
#20 = ORIENTED_EDGE('',*,*,#21,.F.);
#21 = EDGE_CURVE('',#22,#24,#26,.T.);
#22 = VERTEX_POINT('',#23);
#23 = CARTESIAN_POINT('',(1.65,1.55,-3.2));
#24 = VERTEX_POINT('',#25);
#25 = CARTESIAN_POINT('',(1.65,1.55,0.5));
#26 = LINE('',#27,#28);
#27 = CARTESIAN_POINT('',(1.65,1.55,-3.2));
#28 = VECTOR('',#29,1.);
#29 = DIRECTION('',(0.,0.,1.));
#30 = ORIENTED_EDGE('',*,*,#31,.T.);
#31 = EDGE_CURVE('',#22,#32,#34,.T.);
#32 = VERTEX_POINT('',#33);
#33 = CARTESIAN_POINT('',(1.65,1.8,-3.2));
#34 = LINE('',#35,#36);
#35 = CARTESIAN_POINT('',(1.65,1.55,-3.2));
#36 = VECTOR('',#37,1.);
#37 = DIRECTION('',(0.,1.,0.));
#38 = ORIENTED_EDGE('',*,*,#39,.T.);
#39 = EDGE_CURVE('',#32,#40,#42,.T.);
#40 = VERTEX_POINT('',#41);
#41 = CARTESIAN_POINT('',(1.65,1.8,0.5));
#42 = LINE('',#43,#44);
#43 = CARTESIAN_POINT('',(1.65,1.8,-3.2));
#44 = VECTOR('',#45,1.);
#45 = DIRECTION('',(0.,0.,1.));
#46 = ORIENTED_EDGE('',*,*,#47,.F.);
#47 = EDGE_CURVE('',#24,#40,#48,.T.);
#48 = LINE('',#49,#50);
#49 = CARTESIAN_POINT('',(1.65,0.775,0.5));
#50 = VECTOR('',#51,1.);
#51 = DIRECTION('',(0.,1.,0.));
#52 = PLANE('',#53);
#53 = AXIS2_PLACEMENT_3D('',#54,#55,#56);
#54 = CARTESIAN_POINT('',(1.65,1.55,-3.2));
#55 = DIRECTION('',(1.,0.,0.));
#56 = DIRECTION('',(0.,0.,1.));
#57 = ADVANCED_FACE('',(#58),#83,.F.);
#58 = FACE_BOUND('',#59,.F.);
#59 = EDGE_LOOP('',(#60,#70,#76,#77));
#60 = ORIENTED_EDGE('',*,*,#61,.F.);
#61 = EDGE_CURVE('',#62,#64,#66,.T.);
#62 = VERTEX_POINT('',#63);
#63 = CARTESIAN_POINT('',(2.15,1.55,-3.2));
#64 = VERTEX_POINT('',#65);
#65 = CARTESIAN_POINT('',(2.15,1.55,0.5));
#66 = LINE('',#67,#68);
#67 = CARTESIAN_POINT('',(2.15,1.55,-3.2));
#68 = VECTOR('',#69,1.);
#69 = DIRECTION('',(0.,0.,1.));
#70 = ORIENTED_EDGE('',*,*,#71,.F.);
#71 = EDGE_CURVE('',#22,#62,#72,.T.);
#72 = LINE('',#73,#74);
#73 = CARTESIAN_POINT('',(1.65,1.55,-3.2));
#74 = VECTOR('',#75,1.);
#75 = DIRECTION('',(1.,0.,0.));
#76 = ORIENTED_EDGE('',*,*,#21,.T.);
#77 = ORIENTED_EDGE('',*,*,#78,.F.);
#78 = EDGE_CURVE('',#64,#24,#79,.T.);
#79 = LINE('',#80,#81);
#80 = CARTESIAN_POINT('',(1.075,1.55,0.5));
#81 = VECTOR('',#82,1.);
#82 = DIRECTION('',(-1.,0.,0.));
#83 = PLANE('',#84);
#84 = AXIS2_PLACEMENT_3D('',#85,#86,#87);
#85 = CARTESIAN_POINT('',(1.65,1.55,-3.2));
#86 = DIRECTION('',(0.,1.,0.));
#87 = DIRECTION('',(0.,0.,1.));
#88 = ADVANCED_FACE('',(#89,#123,#141,#175,#209),#243,.F.);
#89 = FACE_BOUND('',#90,.F.);
#90 = EDGE_LOOP('',(#91,#101,#109,#117));
#91 = ORIENTED_EDGE('',*,*,#92,.F.);
#92 = EDGE_CURVE('',#93,#95,#97,.T.);
#93 = VERTEX_POINT('',#94);
#94 = CARTESIAN_POINT('',(0.5,0.,0.5));
#95 = VERTEX_POINT('',#96);
#96 = CARTESIAN_POINT('',(0.5,7.1,0.5));
#97 = LINE('',#98,#99);
#98 = CARTESIAN_POINT('',(0.5,0.,0.5));
#99 = VECTOR('',#100,1.);
#100 = DIRECTION('',(0.,1.,0.));
#101 = ORIENTED_EDGE('',*,*,#102,.T.);
#102 = EDGE_CURVE('',#93,#103,#105,.T.);
#103 = VERTEX_POINT('',#104);
#104 = CARTESIAN_POINT('',(11.,0.,0.5));
#105 = LINE('',#106,#107);
#106 = CARTESIAN_POINT('',(0.5,0.,0.5));
#107 = VECTOR('',#108,1.);
#108 = DIRECTION('',(1.,0.,0.));
#109 = ORIENTED_EDGE('',*,*,#110,.T.);
#110 = EDGE_CURVE('',#103,#111,#113,.T.);
#111 = VERTEX_POINT('',#112);
#112 = CARTESIAN_POINT('',(11.,7.1,0.5));
#113 = LINE('',#114,#115);
#114 = CARTESIAN_POINT('',(11.,0.,0.5));
#115 = VECTOR('',#116,1.);
#116 = DIRECTION('',(0.,1.,0.));
#117 = ORIENTED_EDGE('',*,*,#118,.F.);
#118 = EDGE_CURVE('',#95,#111,#119,.T.);
#119 = LINE('',#120,#121);
#120 = CARTESIAN_POINT('',(0.25,7.1,0.5));
#121 = VECTOR('',#122,1.);
#122 = DIRECTION('',(1.,0.,0.));
#123 = FACE_BOUND('',#124,.F.);
#124 = EDGE_LOOP('',(#125,#126,#127,#135));
#125 = ORIENTED_EDGE('',*,*,#78,.T.);
#126 = ORIENTED_EDGE('',*,*,#47,.T.);
#127 = ORIENTED_EDGE('',*,*,#128,.F.);
#128 = EDGE_CURVE('',#129,#40,#131,.T.);
#129 = VERTEX_POINT('',#130);
#130 = CARTESIAN_POINT('',(2.15,1.8,0.5));
#131 = LINE('',#132,#133);
#132 = CARTESIAN_POINT('',(1.075,1.8,0.5));
#133 = VECTOR('',#134,1.);
#134 = DIRECTION('',(-1.,0.,0.));
#135 = ORIENTED_EDGE('',*,*,#136,.F.);
#136 = EDGE_CURVE('',#64,#129,#137,.T.);
#137 = LINE('',#138,#139);
#138 = CARTESIAN_POINT('',(2.15,0.775,0.5));
#139 = VECTOR('',#140,1.);
#140 = DIRECTION('',(0.,1.,0.));
#141 = FACE_BOUND('',#142,.F.);
#142 = EDGE_LOOP('',(#143,#153,#161,#169));
#143 = ORIENTED_EDGE('',*,*,#144,.T.);
#144 = EDGE_CURVE('',#145,#147,#149,.T.);
#145 = VERTEX_POINT('',#146);
#146 = CARTESIAN_POINT('',(4.69,1.55,0.5));
#147 = VERTEX_POINT('',#148);
#148 = CARTESIAN_POINT('',(4.19,1.55,0.5));
#149 = LINE('',#150,#151);
#150 = CARTESIAN_POINT('',(2.345,1.55,0.5));
#151 = VECTOR('',#152,1.);
#152 = DIRECTION('',(-1.,0.,0.));
#153 = ORIENTED_EDGE('',*,*,#154,.T.);
#154 = EDGE_CURVE('',#147,#155,#157,.T.);
#155 = VERTEX_POINT('',#156);
#156 = CARTESIAN_POINT('',(4.19,1.8,0.5));
#157 = LINE('',#158,#159);
#158 = CARTESIAN_POINT('',(4.19,0.775,0.5));
#159 = VECTOR('',#160,1.);
#160 = DIRECTION('',(0.,1.,0.));
#161 = ORIENTED_EDGE('',*,*,#162,.F.);
#162 = EDGE_CURVE('',#163,#155,#165,.T.);
#163 = VERTEX_POINT('',#164);
#164 = CARTESIAN_POINT('',(4.69,1.8,0.5));
#165 = LINE('',#166,#167);
#166 = CARTESIAN_POINT('',(2.345,1.8,0.5));
#167 = VECTOR('',#168,1.);
#168 = DIRECTION('',(-1.,0.,0.));
#169 = ORIENTED_EDGE('',*,*,#170,.F.);
#170 = EDGE_CURVE('',#145,#163,#171,.T.);
#171 = LINE('',#172,#173);
#172 = CARTESIAN_POINT('',(4.69,0.775,0.5));
#173 = VECTOR('',#174,1.);
#174 = DIRECTION('',(0.,1.,0.));
#175 = FACE_BOUND('',#176,.F.);
#176 = EDGE_LOOP('',(#177,#187,#195,#203));
#177 = ORIENTED_EDGE('',*,*,#178,.T.);
#178 = EDGE_CURVE('',#179,#181,#183,.T.);
#179 = VERTEX_POINT('',#180);
#180 = CARTESIAN_POINT('',(7.23,1.55,0.5));
#181 = VERTEX_POINT('',#182);
#182 = CARTESIAN_POINT('',(6.73,1.55,0.5));
#183 = LINE('',#184,#185);
#184 = CARTESIAN_POINT('',(3.615,1.55,0.5));
#185 = VECTOR('',#186,1.);
#186 = DIRECTION('',(-1.,0.,0.));
#187 = ORIENTED_EDGE('',*,*,#188,.T.);
#188 = EDGE_CURVE('',#181,#189,#191,.T.);
#189 = VERTEX_POINT('',#190);
#190 = CARTESIAN_POINT('',(6.73,1.8,0.5));
#191 = LINE('',#192,#193);
#192 = CARTESIAN_POINT('',(6.73,0.775,0.5));
#193 = VECTOR('',#194,1.);
#194 = DIRECTION('',(0.,1.,0.));
#195 = ORIENTED_EDGE('',*,*,#196,.F.);
#196 = EDGE_CURVE('',#197,#189,#199,.T.);
#197 = VERTEX_POINT('',#198);
#198 = CARTESIAN_POINT('',(7.23,1.8,0.5));
#199 = LINE('',#200,#201);
#200 = CARTESIAN_POINT('',(3.615,1.8,0.5));
#201 = VECTOR('',#202,1.);
#202 = DIRECTION('',(-1.,0.,0.));
#203 = ORIENTED_EDGE('',*,*,#204,.F.);
#204 = EDGE_CURVE('',#179,#197,#205,.T.);
#205 = LINE('',#206,#207);
#206 = CARTESIAN_POINT('',(7.23,0.775,0.5));
#207 = VECTOR('',#208,1.);
#208 = DIRECTION('',(0.,1.,0.));
#209 = FACE_BOUND('',#210,.F.);
#210 = EDGE_LOOP('',(#211,#221,#229,#237));
#211 = ORIENTED_EDGE('',*,*,#212,.T.);
#212 = EDGE_CURVE('',#213,#215,#217,.T.);
#213 = VERTEX_POINT('',#214);
#214 = CARTESIAN_POINT('',(9.77,1.55,0.5));
#215 = VERTEX_POINT('',#216);
#216 = CARTESIAN_POINT('',(9.27,1.55,0.5));
#217 = LINE('',#218,#219);
#218 = CARTESIAN_POINT('',(4.885,1.55,0.5));
#219 = VECTOR('',#220,1.);
#220 = DIRECTION('',(-1.,0.,0.));
#221 = ORIENTED_EDGE('',*,*,#222,.T.);
#222 = EDGE_CURVE('',#215,#223,#225,.T.);
#223 = VERTEX_POINT('',#224);
#224 = CARTESIAN_POINT('',(9.27,1.8,0.5));
#225 = LINE('',#226,#227);
#226 = CARTESIAN_POINT('',(9.27,0.775,0.5));
#227 = VECTOR('',#228,1.);
#228 = DIRECTION('',(0.,1.,0.));
#229 = ORIENTED_EDGE('',*,*,#230,.F.);
#230 = EDGE_CURVE('',#231,#223,#233,.T.);
#231 = VERTEX_POINT('',#232);
#232 = CARTESIAN_POINT('',(9.77,1.8,0.5));
#233 = LINE('',#234,#235);
#234 = CARTESIAN_POINT('',(4.885,1.8,0.5));
#235 = VECTOR('',#236,1.);
#236 = DIRECTION('',(-1.,0.,0.));
#237 = ORIENTED_EDGE('',*,*,#238,.F.);
#238 = EDGE_CURVE('',#213,#231,#239,.T.);
#239 = LINE('',#240,#241);
#240 = CARTESIAN_POINT('',(9.77,0.775,0.5));
#241 = VECTOR('',#242,1.);
#242 = DIRECTION('',(0.,1.,0.));
#243 = PLANE('',#244);
#244 = AXIS2_PLACEMENT_3D('',#245,#246,#247);
#245 = CARTESIAN_POINT('',(0.5,0.,0.5));
#246 = DIRECTION('',(0.,0.,1.));
#247 = DIRECTION('',(1.,0.,0.));
#248 = ADVANCED_FACE('',(#249),#267,.T.);
#249 = FACE_BOUND('',#250,.T.);
#250 = EDGE_LOOP('',(#251,#259,#265,#266));
#251 = ORIENTED_EDGE('',*,*,#252,.F.);
#252 = EDGE_CURVE('',#253,#129,#255,.T.);
#253 = VERTEX_POINT('',#254);
#254 = CARTESIAN_POINT('',(2.15,1.8,-3.2));
#255 = LINE('',#256,#257);
#256 = CARTESIAN_POINT('',(2.15,1.8,-3.2));
#257 = VECTOR('',#258,1.);
#258 = DIRECTION('',(0.,0.,1.));
#259 = ORIENTED_EDGE('',*,*,#260,.F.);
#260 = EDGE_CURVE('',#32,#253,#261,.T.);
#261 = LINE('',#262,#263);
#262 = CARTESIAN_POINT('',(1.65,1.8,-3.2));
#263 = VECTOR('',#264,1.);
#264 = DIRECTION('',(1.,0.,0.));
#265 = ORIENTED_EDGE('',*,*,#39,.T.);
#266 = ORIENTED_EDGE('',*,*,#128,.F.);
#267 = PLANE('',#268);
#268 = AXIS2_PLACEMENT_3D('',#269,#270,#271);
#269 = CARTESIAN_POINT('',(1.65,1.8,-3.2));
#270 = DIRECTION('',(0.,1.,0.));
#271 = DIRECTION('',(0.,0.,1.));
#272 = ADVANCED_FACE('',(#273),#284,.F.);
#273 = FACE_BOUND('',#274,.F.);
#274 = EDGE_LOOP('',(#275,#276,#277,#283));
#275 = ORIENTED_EDGE('',*,*,#31,.F.);
#276 = ORIENTED_EDGE('',*,*,#71,.T.);
#277 = ORIENTED_EDGE('',*,*,#278,.T.);
#278 = EDGE_CURVE('',#62,#253,#279,.T.);
#279 = LINE('',#280,#281);
#280 = CARTESIAN_POINT('',(2.15,1.55,-3.2));
#281 = VECTOR('',#282,1.);
#282 = DIRECTION('',(0.,1.,0.));
#283 = ORIENTED_EDGE('',*,*,#260,.F.);
#284 = PLANE('',#285);
#285 = AXIS2_PLACEMENT_3D('',#286,#287,#288);
#286 = CARTESIAN_POINT('',(1.65,1.55,-3.2));
#287 = DIRECTION('',(0.,0.,1.));
#288 = DIRECTION('',(1.,0.,0.));
#289 = ADVANCED_FACE('',(#290),#296,.T.);
#290 = FACE_BOUND('',#291,.T.);
#291 = EDGE_LOOP('',(#292,#293,#294,#295));
#292 = ORIENTED_EDGE('',*,*,#61,.F.);
#293 = ORIENTED_EDGE('',*,*,#278,.T.);
#294 = ORIENTED_EDGE('',*,*,#252,.T.);
#295 = ORIENTED_EDGE('',*,*,#136,.F.);
#296 = PLANE('',#297);
#297 = AXIS2_PLACEMENT_3D('',#298,#299,#300);
#298 = CARTESIAN_POINT('',(2.15,1.55,-3.2));
#299 = DIRECTION('',(1.,0.,0.));
#300 = DIRECTION('',(0.,0.,1.));
#301 = ADVANCED_FACE('',(#302),#327,.T.);
#302 = FACE_BOUND('',#303,.T.);
#303 = EDGE_LOOP('',(#304,#312,#320,#326));
#304 = ORIENTED_EDGE('',*,*,#305,.F.);
#305 = EDGE_CURVE('',#306,#93,#308,.T.);
#306 = VERTEX_POINT('',#307);
#307 = CARTESIAN_POINT('',(0.5,0.,0.));
#308 = LINE('',#309,#310);
#309 = CARTESIAN_POINT('',(0.5,0.,0.));
#310 = VECTOR('',#311,1.);
#311 = DIRECTION('',(0.,0.,1.));
#312 = ORIENTED_EDGE('',*,*,#313,.T.);
#313 = EDGE_CURVE('',#306,#314,#316,.T.);
#314 = VERTEX_POINT('',#315);
#315 = CARTESIAN_POINT('',(0.5,7.1,0.));
#316 = LINE('',#317,#318);
#317 = CARTESIAN_POINT('',(0.5,0.,0.));
#318 = VECTOR('',#319,1.);
#319 = DIRECTION('',(0.,1.,0.));
#320 = ORIENTED_EDGE('',*,*,#321,.F.);
#321 = EDGE_CURVE('',#95,#314,#322,.T.);
#322 = LINE('',#323,#324);
#323 = CARTESIAN_POINT('',(0.5,7.1,0.));
#324 = VECTOR('',#325,1.);
#325 = DIRECTION('',(0.,0.,-1.));
#326 = ORIENTED_EDGE('',*,*,#92,.F.);
#327 = PLANE('',#328);
#328 = AXIS2_PLACEMENT_3D('',#329,#330,#331);
#329 = CARTESIAN_POINT('',(0.5,0.,0.));
#330 = DIRECTION('',(1.,0.,0.));
#331 = DIRECTION('',(0.,0.,1.));
#332 = ADVANCED_FACE('',(#333),#383,.F.);
#333 = FACE_BOUND('',#334,.F.);
#334 = EDGE_LOOP('',(#335,#343,#351,#359,#367,#375,#381,#382));
#335 = ORIENTED_EDGE('',*,*,#336,.F.);
#336 = EDGE_CURVE('',#337,#306,#339,.T.);
#337 = VERTEX_POINT('',#338);
#338 = CARTESIAN_POINT('',(0.,0.,0.));
#339 = LINE('',#340,#341);
#340 = CARTESIAN_POINT('',(0.,0.,0.));
#341 = VECTOR('',#342,1.);
#342 = DIRECTION('',(1.,0.,0.));
#343 = ORIENTED_EDGE('',*,*,#344,.T.);
#344 = EDGE_CURVE('',#337,#345,#347,.T.);
#345 = VERTEX_POINT('',#346);
#346 = CARTESIAN_POINT('',(0.,0.,10.2));
#347 = LINE('',#348,#349);
#348 = CARTESIAN_POINT('',(0.,0.,0.));
#349 = VECTOR('',#350,1.);
#350 = DIRECTION('',(0.,0.,1.));
#351 = ORIENTED_EDGE('',*,*,#352,.T.);
#352 = EDGE_CURVE('',#345,#353,#355,.T.);
#353 = VERTEX_POINT('',#354);
#354 = CARTESIAN_POINT('',(11.5,0.,10.2));
#355 = LINE('',#356,#357);
#356 = CARTESIAN_POINT('',(0.,0.,10.2));
#357 = VECTOR('',#358,1.);
#358 = DIRECTION('',(1.,0.,0.));
#359 = ORIENTED_EDGE('',*,*,#360,.F.);
#360 = EDGE_CURVE('',#361,#353,#363,.T.);
#361 = VERTEX_POINT('',#362);
#362 = CARTESIAN_POINT('',(11.5,0.,0.));
#363 = LINE('',#364,#365);
#364 = CARTESIAN_POINT('',(11.5,0.,0.));
#365 = VECTOR('',#366,1.);
#366 = DIRECTION('',(0.,0.,1.));
#367 = ORIENTED_EDGE('',*,*,#368,.F.);
#368 = EDGE_CURVE('',#369,#361,#371,.T.);
#369 = VERTEX_POINT('',#370);
#370 = CARTESIAN_POINT('',(11.,0.,0.));
#371 = LINE('',#372,#373);
#372 = CARTESIAN_POINT('',(0.,0.,0.));
#373 = VECTOR('',#374,1.);
#374 = DIRECTION('',(1.,0.,0.));
#375 = ORIENTED_EDGE('',*,*,#376,.T.);
#376 = EDGE_CURVE('',#369,#103,#377,.T.);
#377 = LINE('',#378,#379);
#378 = CARTESIAN_POINT('',(11.,0.,0.));
#379 = VECTOR('',#380,1.);
#380 = DIRECTION('',(0.,0.,1.));
#381 = ORIENTED_EDGE('',*,*,#102,.F.);
#382 = ORIENTED_EDGE('',*,*,#305,.F.);
#383 = PLANE('',#384);
#384 = AXIS2_PLACEMENT_3D('',#385,#386,#387);
#385 = CARTESIAN_POINT('',(0.,0.,0.));
#386 = DIRECTION('',(0.,1.,0.));
#387 = DIRECTION('',(0.,0.,1.));
#388 = ADVANCED_FACE('',(#389),#439,.T.);
#389 = FACE_BOUND('',#390,.T.);
#390 = EDGE_LOOP('',(#391,#399,#407,#415,#423,#431,#437,#438));
#391 = ORIENTED_EDGE('',*,*,#392,.F.);
#392 = EDGE_CURVE('',#393,#314,#395,.T.);
#393 = VERTEX_POINT('',#394);
#394 = CARTESIAN_POINT('',(0.,7.1,0.));
#395 = LINE('',#396,#397);
#396 = CARTESIAN_POINT('',(0.,7.1,0.));
#397 = VECTOR('',#398,1.);
#398 = DIRECTION('',(1.,0.,0.));
#399 = ORIENTED_EDGE('',*,*,#400,.T.);
#400 = EDGE_CURVE('',#393,#401,#403,.T.);
#401 = VERTEX_POINT('',#402);
#402 = CARTESIAN_POINT('',(0.,7.1,10.2));
#403 = LINE('',#404,#405);
#404 = CARTESIAN_POINT('',(0.,7.1,0.));
#405 = VECTOR('',#406,1.);
#406 = DIRECTION('',(0.,0.,1.));
#407 = ORIENTED_EDGE('',*,*,#408,.T.);
#408 = EDGE_CURVE('',#401,#409,#411,.T.);
#409 = VERTEX_POINT('',#410);
#410 = CARTESIAN_POINT('',(11.5,7.1,10.2));
#411 = LINE('',#412,#413);
#412 = CARTESIAN_POINT('',(0.,7.1,10.2));
#413 = VECTOR('',#414,1.);
#414 = DIRECTION('',(1.,0.,0.));
#415 = ORIENTED_EDGE('',*,*,#416,.F.);
#416 = EDGE_CURVE('',#417,#409,#419,.T.);
#417 = VERTEX_POINT('',#418);
#418 = CARTESIAN_POINT('',(11.5,7.1,0.));
#419 = LINE('',#420,#421);
#420 = CARTESIAN_POINT('',(11.5,7.1,0.));
#421 = VECTOR('',#422,1.);
#422 = DIRECTION('',(0.,0.,1.));
#423 = ORIENTED_EDGE('',*,*,#424,.F.);
#424 = EDGE_CURVE('',#425,#417,#427,.T.);
#425 = VERTEX_POINT('',#426);
#426 = CARTESIAN_POINT('',(11.,7.1,0.));
#427 = LINE('',#428,#429);
#428 = CARTESIAN_POINT('',(0.,7.1,0.));
#429 = VECTOR('',#430,1.);
#430 = DIRECTION('',(1.,0.,0.));
#431 = ORIENTED_EDGE('',*,*,#432,.F.);
#432 = EDGE_CURVE('',#111,#425,#433,.T.);
#433 = LINE('',#434,#435);
#434 = CARTESIAN_POINT('',(11.,7.1,0.));
#435 = VECTOR('',#436,1.);
#436 = DIRECTION('',(0.,0.,-1.));
#437 = ORIENTED_EDGE('',*,*,#118,.F.);
#438 = ORIENTED_EDGE('',*,*,#321,.T.);
#439 = PLANE('',#440);
#440 = AXIS2_PLACEMENT_3D('',#441,#442,#443);
#441 = CARTESIAN_POINT('',(0.,7.1,0.));
#442 = DIRECTION('',(0.,1.,0.));
#443 = DIRECTION('',(0.,0.,1.));
#444 = ADVANCED_FACE('',(#445),#456,.F.);
#445 = FACE_BOUND('',#446,.F.);
#446 = EDGE_LOOP('',(#447,#448,#454,#455));
#447 = ORIENTED_EDGE('',*,*,#376,.F.);
#448 = ORIENTED_EDGE('',*,*,#449,.T.);
#449 = EDGE_CURVE('',#369,#425,#450,.T.);
#450 = LINE('',#451,#452);
#451 = CARTESIAN_POINT('',(11.,0.,0.));
#452 = VECTOR('',#453,1.);
#453 = DIRECTION('',(0.,1.,0.));
#454 = ORIENTED_EDGE('',*,*,#432,.F.);
#455 = ORIENTED_EDGE('',*,*,#110,.F.);
#456 = PLANE('',#457);
#457 = AXIS2_PLACEMENT_3D('',#458,#459,#460);
#458 = CARTESIAN_POINT('',(11.,0.,0.));
#459 = DIRECTION('',(1.,0.,0.));
#460 = DIRECTION('',(0.,0.,1.));
#461 = ADVANCED_FACE('',(#462),#487,.F.);
#462 = FACE_BOUND('',#463,.F.);
#463 = EDGE_LOOP('',(#464,#472,#480,#486));
#464 = ORIENTED_EDGE('',*,*,#465,.F.);
#465 = EDGE_CURVE('',#466,#145,#468,.T.);
#466 = VERTEX_POINT('',#467);
#467 = CARTESIAN_POINT('',(4.69,1.55,-3.2));
#468 = LINE('',#469,#470);
#469 = CARTESIAN_POINT('',(4.69,1.55,-3.2));
#470 = VECTOR('',#471,1.);
#471 = DIRECTION('',(0.,0.,1.));
#472 = ORIENTED_EDGE('',*,*,#473,.F.);
#473 = EDGE_CURVE('',#474,#466,#476,.T.);
#474 = VERTEX_POINT('',#475);
#475 = CARTESIAN_POINT('',(4.19,1.55,-3.2));
#476 = LINE('',#477,#478);
#477 = CARTESIAN_POINT('',(4.19,1.55,-3.2));
#478 = VECTOR('',#479,1.);
#479 = DIRECTION('',(1.,0.,0.));
#480 = ORIENTED_EDGE('',*,*,#481,.T.);
#481 = EDGE_CURVE('',#474,#147,#482,.T.);
#482 = LINE('',#483,#484);
#483 = CARTESIAN_POINT('',(4.19,1.55,-3.2));
#484 = VECTOR('',#485,1.);
#485 = DIRECTION('',(0.,0.,1.));
#486 = ORIENTED_EDGE('',*,*,#144,.F.);
#487 = PLANE('',#488);
#488 = AXIS2_PLACEMENT_3D('',#489,#490,#491);
#489 = CARTESIAN_POINT('',(4.19,1.55,-3.2));
#490 = DIRECTION('',(0.,1.,0.));
#491 = DIRECTION('',(0.,0.,1.));
#492 = ADVANCED_FACE('',(#493),#511,.T.);
#493 = FACE_BOUND('',#494,.T.);
#494 = EDGE_LOOP('',(#495,#496,#504,#510));
#495 = ORIENTED_EDGE('',*,*,#465,.F.);
#496 = ORIENTED_EDGE('',*,*,#497,.T.);
#497 = EDGE_CURVE('',#466,#498,#500,.T.);
#498 = VERTEX_POINT('',#499);
#499 = CARTESIAN_POINT('',(4.69,1.8,-3.2));
#500 = LINE('',#501,#502);
#501 = CARTESIAN_POINT('',(4.69,1.55,-3.2));
#502 = VECTOR('',#503,1.);
#503 = DIRECTION('',(0.,1.,0.));
#504 = ORIENTED_EDGE('',*,*,#505,.T.);
#505 = EDGE_CURVE('',#498,#163,#506,.T.);
#506 = LINE('',#507,#508);
#507 = CARTESIAN_POINT('',(4.69,1.8,-3.2));
#508 = VECTOR('',#509,1.);
#509 = DIRECTION('',(0.,0.,1.));
#510 = ORIENTED_EDGE('',*,*,#170,.F.);
#511 = PLANE('',#512);
#512 = AXIS2_PLACEMENT_3D('',#513,#514,#515);
#513 = CARTESIAN_POINT('',(4.69,1.55,-3.2));
#514 = DIRECTION('',(1.,0.,0.));
#515 = DIRECTION('',(0.,0.,1.));
#516 = ADVANCED_FACE('',(#517),#535,.T.);
#517 = FACE_BOUND('',#518,.T.);
#518 = EDGE_LOOP('',(#519,#520,#528,#534));
#519 = ORIENTED_EDGE('',*,*,#505,.F.);
#520 = ORIENTED_EDGE('',*,*,#521,.F.);
#521 = EDGE_CURVE('',#522,#498,#524,.T.);
#522 = VERTEX_POINT('',#523);
#523 = CARTESIAN_POINT('',(4.19,1.8,-3.2));
#524 = LINE('',#525,#526);
#525 = CARTESIAN_POINT('',(4.19,1.8,-3.2));
#526 = VECTOR('',#527,1.);
#527 = DIRECTION('',(1.,0.,0.));
#528 = ORIENTED_EDGE('',*,*,#529,.T.);
#529 = EDGE_CURVE('',#522,#155,#530,.T.);
#530 = LINE('',#531,#532);
#531 = CARTESIAN_POINT('',(4.19,1.8,-3.2));
#532 = VECTOR('',#533,1.);
#533 = DIRECTION('',(0.,0.,1.));
#534 = ORIENTED_EDGE('',*,*,#162,.F.);
#535 = PLANE('',#536);
#536 = AXIS2_PLACEMENT_3D('',#537,#538,#539);
#537 = CARTESIAN_POINT('',(4.19,1.8,-3.2));
#538 = DIRECTION('',(0.,1.,0.));
#539 = DIRECTION('',(0.,0.,1.));
#540 = ADVANCED_FACE('',(#541),#552,.F.);
#541 = FACE_BOUND('',#542,.F.);
#542 = EDGE_LOOP('',(#543,#544,#550,#551));
#543 = ORIENTED_EDGE('',*,*,#481,.F.);
#544 = ORIENTED_EDGE('',*,*,#545,.T.);
#545 = EDGE_CURVE('',#474,#522,#546,.T.);
#546 = LINE('',#547,#548);
#547 = CARTESIAN_POINT('',(4.19,1.55,-3.2));
#548 = VECTOR('',#549,1.);
#549 = DIRECTION('',(0.,1.,0.));
#550 = ORIENTED_EDGE('',*,*,#529,.T.);
#551 = ORIENTED_EDGE('',*,*,#154,.F.);
#552 = PLANE('',#553);
#553 = AXIS2_PLACEMENT_3D('',#554,#555,#556);
#554 = CARTESIAN_POINT('',(4.19,1.55,-3.2));
#555 = DIRECTION('',(1.,0.,0.));
#556 = DIRECTION('',(0.,0.,1.));
#557 = ADVANCED_FACE('',(#558),#583,.F.);
#558 = FACE_BOUND('',#559,.F.);
#559 = EDGE_LOOP('',(#560,#568,#576,#582));
#560 = ORIENTED_EDGE('',*,*,#561,.F.);
#561 = EDGE_CURVE('',#562,#179,#564,.T.);
#562 = VERTEX_POINT('',#563);
#563 = CARTESIAN_POINT('',(7.23,1.55,-3.2));
#564 = LINE('',#565,#566);
#565 = CARTESIAN_POINT('',(7.23,1.55,-3.2));
#566 = VECTOR('',#567,1.);
#567 = DIRECTION('',(0.,0.,1.));
#568 = ORIENTED_EDGE('',*,*,#569,.F.);
#569 = EDGE_CURVE('',#570,#562,#572,.T.);
#570 = VERTEX_POINT('',#571);
#571 = CARTESIAN_POINT('',(6.73,1.55,-3.2));
#572 = LINE('',#573,#574);
#573 = CARTESIAN_POINT('',(6.73,1.55,-3.2));
#574 = VECTOR('',#575,1.);
#575 = DIRECTION('',(1.,0.,0.));
#576 = ORIENTED_EDGE('',*,*,#577,.T.);
#577 = EDGE_CURVE('',#570,#181,#578,.T.);
#578 = LINE('',#579,#580);
#579 = CARTESIAN_POINT('',(6.73,1.55,-3.2));
#580 = VECTOR('',#581,1.);
#581 = DIRECTION('',(0.,0.,1.));
#582 = ORIENTED_EDGE('',*,*,#178,.F.);
#583 = PLANE('',#584);
#584 = AXIS2_PLACEMENT_3D('',#585,#586,#587);
#585 = CARTESIAN_POINT('',(6.73,1.55,-3.2));
#586 = DIRECTION('',(0.,1.,0.));
#587 = DIRECTION('',(0.,0.,1.));
#588 = ADVANCED_FACE('',(#589),#607,.T.);
#589 = FACE_BOUND('',#590,.T.);
#590 = EDGE_LOOP('',(#591,#592,#600,#606));
#591 = ORIENTED_EDGE('',*,*,#561,.F.);
#592 = ORIENTED_EDGE('',*,*,#593,.T.);
#593 = EDGE_CURVE('',#562,#594,#596,.T.);
#594 = VERTEX_POINT('',#595);
#595 = CARTESIAN_POINT('',(7.23,1.8,-3.2));
#596 = LINE('',#597,#598);
#597 = CARTESIAN_POINT('',(7.23,1.55,-3.2));
#598 = VECTOR('',#599,1.);
#599 = DIRECTION('',(0.,1.,0.));
#600 = ORIENTED_EDGE('',*,*,#601,.T.);
#601 = EDGE_CURVE('',#594,#197,#602,.T.);
#602 = LINE('',#603,#604);
#603 = CARTESIAN_POINT('',(7.23,1.8,-3.2));
#604 = VECTOR('',#605,1.);
#605 = DIRECTION('',(0.,0.,1.));
#606 = ORIENTED_EDGE('',*,*,#204,.F.);
#607 = PLANE('',#608);
#608 = AXIS2_PLACEMENT_3D('',#609,#610,#611);
#609 = CARTESIAN_POINT('',(7.23,1.55,-3.2));
#610 = DIRECTION('',(1.,0.,0.));
#611 = DIRECTION('',(0.,0.,1.));
#612 = ADVANCED_FACE('',(#613),#631,.T.);
#613 = FACE_BOUND('',#614,.T.);
#614 = EDGE_LOOP('',(#615,#616,#624,#630));
#615 = ORIENTED_EDGE('',*,*,#601,.F.);
#616 = ORIENTED_EDGE('',*,*,#617,.F.);
#617 = EDGE_CURVE('',#618,#594,#620,.T.);
#618 = VERTEX_POINT('',#619);
#619 = CARTESIAN_POINT('',(6.73,1.8,-3.2));
#620 = LINE('',#621,#622);
#621 = CARTESIAN_POINT('',(6.73,1.8,-3.2));
#622 = VECTOR('',#623,1.);
#623 = DIRECTION('',(1.,0.,0.));
#624 = ORIENTED_EDGE('',*,*,#625,.T.);
#625 = EDGE_CURVE('',#618,#189,#626,.T.);
#626 = LINE('',#627,#628);
#627 = CARTESIAN_POINT('',(6.73,1.8,-3.2));
#628 = VECTOR('',#629,1.);
#629 = DIRECTION('',(0.,0.,1.));
#630 = ORIENTED_EDGE('',*,*,#196,.F.);
#631 = PLANE('',#632);
#632 = AXIS2_PLACEMENT_3D('',#633,#634,#635);
#633 = CARTESIAN_POINT('',(6.73,1.8,-3.2));
#634 = DIRECTION('',(0.,1.,0.));
#635 = DIRECTION('',(0.,0.,1.));
#636 = ADVANCED_FACE('',(#637),#648,.F.);
#637 = FACE_BOUND('',#638,.F.);
#638 = EDGE_LOOP('',(#639,#640,#646,#647));
#639 = ORIENTED_EDGE('',*,*,#577,.F.);
#640 = ORIENTED_EDGE('',*,*,#641,.T.);
#641 = EDGE_CURVE('',#570,#618,#642,.T.);
#642 = LINE('',#643,#644);
#643 = CARTESIAN_POINT('',(6.73,1.55,-3.2));
#644 = VECTOR('',#645,1.);
#645 = DIRECTION('',(0.,1.,0.));
#646 = ORIENTED_EDGE('',*,*,#625,.T.);
#647 = ORIENTED_EDGE('',*,*,#188,.F.);
#648 = PLANE('',#649);
#649 = AXIS2_PLACEMENT_3D('',#650,#651,#652);
#650 = CARTESIAN_POINT('',(6.73,1.55,-3.2));
#651 = DIRECTION('',(1.,0.,0.));
#652 = DIRECTION('',(0.,0.,1.));
#653 = ADVANCED_FACE('',(#654),#679,.F.);
#654 = FACE_BOUND('',#655,.F.);
#655 = EDGE_LOOP('',(#656,#664,#672,#678));
#656 = ORIENTED_EDGE('',*,*,#657,.F.);
#657 = EDGE_CURVE('',#658,#213,#660,.T.);
#658 = VERTEX_POINT('',#659);
#659 = CARTESIAN_POINT('',(9.77,1.55,-3.2));
#660 = LINE('',#661,#662);
#661 = CARTESIAN_POINT('',(9.77,1.55,-3.2));
#662 = VECTOR('',#663,1.);
#663 = DIRECTION('',(0.,0.,1.));
#664 = ORIENTED_EDGE('',*,*,#665,.F.);
#665 = EDGE_CURVE('',#666,#658,#668,.T.);
#666 = VERTEX_POINT('',#667);
#667 = CARTESIAN_POINT('',(9.27,1.55,-3.2));
#668 = LINE('',#669,#670);
#669 = CARTESIAN_POINT('',(9.27,1.55,-3.2));
#670 = VECTOR('',#671,1.);
#671 = DIRECTION('',(1.,0.,0.));
#672 = ORIENTED_EDGE('',*,*,#673,.T.);
#673 = EDGE_CURVE('',#666,#215,#674,.T.);
#674 = LINE('',#675,#676);
#675 = CARTESIAN_POINT('',(9.27,1.55,-3.2));
#676 = VECTOR('',#677,1.);
#677 = DIRECTION('',(0.,0.,1.));
#678 = ORIENTED_EDGE('',*,*,#212,.F.);
#679 = PLANE('',#680);
#680 = AXIS2_PLACEMENT_3D('',#681,#682,#683);
#681 = CARTESIAN_POINT('',(9.27,1.55,-3.2));
#682 = DIRECTION('',(0.,1.,0.));
#683 = DIRECTION('',(0.,0.,1.));
#684 = ADVANCED_FACE('',(#685),#703,.T.);
#685 = FACE_BOUND('',#686,.T.);
#686 = EDGE_LOOP('',(#687,#688,#696,#702));
#687 = ORIENTED_EDGE('',*,*,#657,.F.);
#688 = ORIENTED_EDGE('',*,*,#689,.T.);
#689 = EDGE_CURVE('',#658,#690,#692,.T.);
#690 = VERTEX_POINT('',#691);
#691 = CARTESIAN_POINT('',(9.77,1.8,-3.2));
#692 = LINE('',#693,#694);
#693 = CARTESIAN_POINT('',(9.77,1.55,-3.2));
#694 = VECTOR('',#695,1.);
#695 = DIRECTION('',(0.,1.,0.));
#696 = ORIENTED_EDGE('',*,*,#697,.T.);
#697 = EDGE_CURVE('',#690,#231,#698,.T.);
#698 = LINE('',#699,#700);
#699 = CARTESIAN_POINT('',(9.77,1.8,-3.2));
#700 = VECTOR('',#701,1.);
#701 = DIRECTION('',(0.,0.,1.));
#702 = ORIENTED_EDGE('',*,*,#238,.F.);
#703 = PLANE('',#704);
#704 = AXIS2_PLACEMENT_3D('',#705,#706,#707);
#705 = CARTESIAN_POINT('',(9.77,1.55,-3.2));
#706 = DIRECTION('',(1.,0.,0.));
#707 = DIRECTION('',(0.,0.,1.));
#708 = ADVANCED_FACE('',(#709),#727,.T.);
#709 = FACE_BOUND('',#710,.T.);
#710 = EDGE_LOOP('',(#711,#712,#720,#726));
#711 = ORIENTED_EDGE('',*,*,#697,.F.);
#712 = ORIENTED_EDGE('',*,*,#713,.F.);
#713 = EDGE_CURVE('',#714,#690,#716,.T.);
#714 = VERTEX_POINT('',#715);
#715 = CARTESIAN_POINT('',(9.27,1.8,-3.2));
#716 = LINE('',#717,#718);
#717 = CARTESIAN_POINT('',(9.27,1.8,-3.2));
#718 = VECTOR('',#719,1.);
#719 = DIRECTION('',(1.,0.,0.));
#720 = ORIENTED_EDGE('',*,*,#721,.T.);
#721 = EDGE_CURVE('',#714,#223,#722,.T.);
#722 = LINE('',#723,#724);
#723 = CARTESIAN_POINT('',(9.27,1.8,-3.2));
#724 = VECTOR('',#725,1.);
#725 = DIRECTION('',(0.,0.,1.));
#726 = ORIENTED_EDGE('',*,*,#230,.F.);
#727 = PLANE('',#728);
#728 = AXIS2_PLACEMENT_3D('',#729,#730,#731);
#729 = CARTESIAN_POINT('',(9.27,1.8,-3.2));
#730 = DIRECTION('',(0.,1.,0.));
#731 = DIRECTION('',(0.,0.,1.));
#732 = ADVANCED_FACE('',(#733),#744,.F.);
#733 = FACE_BOUND('',#734,.F.);
#734 = EDGE_LOOP('',(#735,#736,#742,#743));
#735 = ORIENTED_EDGE('',*,*,#673,.F.);
#736 = ORIENTED_EDGE('',*,*,#737,.T.);
#737 = EDGE_CURVE('',#666,#714,#738,.T.);
#738 = LINE('',#739,#740);
#739 = CARTESIAN_POINT('',(9.27,1.55,-3.2));
#740 = VECTOR('',#741,1.);
#741 = DIRECTION('',(0.,1.,0.));
#742 = ORIENTED_EDGE('',*,*,#721,.T.);
#743 = ORIENTED_EDGE('',*,*,#222,.F.);
#744 = PLANE('',#745);
#745 = AXIS2_PLACEMENT_3D('',#746,#747,#748);
#746 = CARTESIAN_POINT('',(9.27,1.55,-3.2));
#747 = DIRECTION('',(1.,0.,0.));
#748 = DIRECTION('',(0.,0.,1.));
#749 = ADVANCED_FACE('',(#750),#761,.F.);
#750 = FACE_BOUND('',#751,.F.);
#751 = EDGE_LOOP('',(#752,#753,#759,#760));
#752 = ORIENTED_EDGE('',*,*,#392,.F.);
#753 = ORIENTED_EDGE('',*,*,#754,.F.);
#754 = EDGE_CURVE('',#337,#393,#755,.T.);
#755 = LINE('',#756,#757);
#756 = CARTESIAN_POINT('',(0.,0.,0.));
#757 = VECTOR('',#758,1.);
#758 = DIRECTION('',(0.,1.,0.));
#759 = ORIENTED_EDGE('',*,*,#336,.T.);
#760 = ORIENTED_EDGE('',*,*,#313,.T.);
#761 = PLANE('',#762);
#762 = AXIS2_PLACEMENT_3D('',#763,#764,#765);
#763 = CARTESIAN_POINT('',(0.,0.,0.));
#764 = DIRECTION('',(0.,0.,1.));
#765 = DIRECTION('',(1.,0.,0.));
#766 = ADVANCED_FACE('',(#767),#778,.F.);
#767 = FACE_BOUND('',#768,.F.);
#768 = EDGE_LOOP('',(#769,#770,#771,#772));
#769 = ORIENTED_EDGE('',*,*,#424,.F.);
#770 = ORIENTED_EDGE('',*,*,#449,.F.);
#771 = ORIENTED_EDGE('',*,*,#368,.T.);
#772 = ORIENTED_EDGE('',*,*,#773,.T.);
#773 = EDGE_CURVE('',#361,#417,#774,.T.);
#774 = LINE('',#775,#776);
#775 = CARTESIAN_POINT('',(11.5,0.,0.));
#776 = VECTOR('',#777,1.);
#777 = DIRECTION('',(0.,1.,0.));
#778 = PLANE('',#779);
#779 = AXIS2_PLACEMENT_3D('',#780,#781,#782);
#780 = CARTESIAN_POINT('',(0.,0.,0.));
#781 = DIRECTION('',(0.,0.,1.));
#782 = DIRECTION('',(1.,0.,0.));
#783 = ADVANCED_FACE('',(#784),#795,.T.);
#784 = FACE_BOUND('',#785,.T.);
#785 = EDGE_LOOP('',(#786,#787,#788,#789));
#786 = ORIENTED_EDGE('',*,*,#360,.F.);
#787 = ORIENTED_EDGE('',*,*,#773,.T.);
#788 = ORIENTED_EDGE('',*,*,#416,.T.);
#789 = ORIENTED_EDGE('',*,*,#790,.F.);
#790 = EDGE_CURVE('',#353,#409,#791,.T.);
#791 = LINE('',#792,#793);
#792 = CARTESIAN_POINT('',(11.5,0.,10.2));
#793 = VECTOR('',#794,1.);
#794 = DIRECTION('',(0.,1.,0.));
#795 = PLANE('',#796);
#796 = AXIS2_PLACEMENT_3D('',#797,#798,#799);
#797 = CARTESIAN_POINT('',(11.5,0.,0.));
#798 = DIRECTION('',(1.,0.,0.));
#799 = DIRECTION('',(0.,0.,1.));
#800 = ADVANCED_FACE('',(#801),#812,.T.);
#801 = FACE_BOUND('',#802,.T.);
#802 = EDGE_LOOP('',(#803,#809,#810,#811));
#803 = ORIENTED_EDGE('',*,*,#804,.F.);
#804 = EDGE_CURVE('',#345,#401,#805,.T.);
#805 = LINE('',#806,#807);
#806 = CARTESIAN_POINT('',(0.,0.,10.2));
#807 = VECTOR('',#808,1.);
#808 = DIRECTION('',(0.,1.,0.));
#809 = ORIENTED_EDGE('',*,*,#352,.T.);
#810 = ORIENTED_EDGE('',*,*,#790,.T.);
#811 = ORIENTED_EDGE('',*,*,#408,.F.);
#812 = PLANE('',#813);
#813 = AXIS2_PLACEMENT_3D('',#814,#815,#816);
#814 = CARTESIAN_POINT('',(0.,0.,10.2));
#815 = DIRECTION('',(0.,0.,1.));
#816 = DIRECTION('',(1.,0.,0.));
#817 = ADVANCED_FACE('',(#818),#824,.F.);
#818 = FACE_BOUND('',#819,.F.);
#819 = EDGE_LOOP('',(#820,#821,#822,#823));
#820 = ORIENTED_EDGE('',*,*,#344,.F.);
#821 = ORIENTED_EDGE('',*,*,#754,.T.);
#822 = ORIENTED_EDGE('',*,*,#400,.T.);
#823 = ORIENTED_EDGE('',*,*,#804,.F.);
#824 = PLANE('',#825);
#825 = AXIS2_PLACEMENT_3D('',#826,#827,#828);
#826 = CARTESIAN_POINT('',(0.,0.,0.));
#827 = DIRECTION('',(1.,0.,0.));
#828 = DIRECTION('',(0.,0.,1.));
#829 = ADVANCED_FACE('',(#830),#836,.F.);
#830 = FACE_BOUND('',#831,.F.);
#831 = EDGE_LOOP('',(#832,#833,#834,#835));
#832 = ORIENTED_EDGE('',*,*,#545,.F.);
#833 = ORIENTED_EDGE('',*,*,#473,.T.);
#834 = ORIENTED_EDGE('',*,*,#497,.T.);
#835 = ORIENTED_EDGE('',*,*,#521,.F.);
#836 = PLANE('',#837);
#837 = AXIS2_PLACEMENT_3D('',#838,#839,#840);
#838 = CARTESIAN_POINT('',(4.19,1.55,-3.2));
#839 = DIRECTION('',(0.,0.,1.));
#840 = DIRECTION('',(1.,0.,0.));
#841 = ADVANCED_FACE('',(#842),#848,.F.);
#842 = FACE_BOUND('',#843,.F.);
#843 = EDGE_LOOP('',(#844,#845,#846,#847));
#844 = ORIENTED_EDGE('',*,*,#641,.F.);
#845 = ORIENTED_EDGE('',*,*,#569,.T.);
#846 = ORIENTED_EDGE('',*,*,#593,.T.);
#847 = ORIENTED_EDGE('',*,*,#617,.F.);
#848 = PLANE('',#849);
#849 = AXIS2_PLACEMENT_3D('',#850,#851,#852);
#850 = CARTESIAN_POINT('',(6.73,1.55,-3.2));
#851 = DIRECTION('',(0.,0.,1.));
#852 = DIRECTION('',(1.,0.,0.));
#853 = ADVANCED_FACE('',(#854),#860,.F.);
#854 = FACE_BOUND('',#855,.F.);
#855 = EDGE_LOOP('',(#856,#857,#858,#859));
#856 = ORIENTED_EDGE('',*,*,#737,.F.);
#857 = ORIENTED_EDGE('',*,*,#665,.T.);
#858 = ORIENTED_EDGE('',*,*,#689,.T.);
#859 = ORIENTED_EDGE('',*,*,#713,.F.);
#860 = PLANE('',#861);
#861 = AXIS2_PLACEMENT_3D('',#862,#863,#864);
#862 = CARTESIAN_POINT('',(9.27,1.55,-3.2));
#863 = DIRECTION('',(0.,0.,1.));
#864 = DIRECTION('',(1.,0.,0.));
#865 = ( GEOMETRIC_REPRESENTATION_CONTEXT(3) 
GLOBAL_UNCERTAINTY_ASSIGNED_CONTEXT((#869)) GLOBAL_UNIT_ASSIGNED_CONTEXT
((#866,#867,#868)) REPRESENTATION_CONTEXT('Context #1',
  '3D Context with UNIT and UNCERTAINTY') );
#866 = ( LENGTH_UNIT() NAMED_UNIT(*) SI_UNIT(.MILLI.,.METRE.) );
#867 = ( NAMED_UNIT(*) PLANE_ANGLE_UNIT() SI_UNIT($,.RADIAN.) );
#868 = ( NAMED_UNIT(*) SI_UNIT($,.STERADIAN.) SOLID_ANGLE_UNIT() );
#869 = UNCERTAINTY_MEASURE_WITH_UNIT(LENGTH_MEASURE(2.E-06),#866,
  'distance_accuracy_value','confusion accuracy');
#870 = PRODUCT_RELATED_PRODUCT_CATEGORY('part',$,(#7));
#871 = MECHANICAL_DESIGN_GEOMETRIC_PRESENTATION_REPRESENTATION('',(#872,
    #883,#892,#901,#909,#918,#927,#936,#943,#950,#957,#964,#973,#982,
    #991,#1000,#1009,#1018,#1027,#1036,#1045,#1054,#1063,#1072,#1079,
    #1086,#1093,#1100,#1107,#1116,#1125),#865);
#872 = STYLED_ITEM('color',(#873),#15);
#873 = PRESENTATION_STYLE_ASSIGNMENT((#874,#880));
#874 = SURFACE_STYLE_USAGE(.BOTH.,#875);
#875 = SURFACE_SIDE_STYLE('',(#876));
#876 = SURFACE_STYLE_FILL_AREA(#877);
#877 = FILL_AREA_STYLE('',(#878));
#878 = FILL_AREA_STYLE_COLOUR('',#879);
#879 = COLOUR_RGB('',0.447059003357,0.474510015008,0.501960993452);
#880 = CURVE_STYLE('',#881,POSITIVE_LENGTH_MEASURE(0.1),#882);
#881 = DRAUGHTING_PRE_DEFINED_CURVE_FONT('continuous');
#882 = COLOUR_RGB('',9.803921802644E-02,9.803921802644E-02,
  9.803921802644E-02);
#883 = OVER_RIDING_STYLED_ITEM('overriding color',(#884),#17,#872);
#884 = PRESENTATION_STYLE_ASSIGNMENT((#885));
#885 = SURFACE_STYLE_USAGE(.BOTH.,#886);
#886 = SURFACE_SIDE_STYLE('',(#887,#890));
#887 = SURFACE_STYLE_FILL_AREA(#888);
#888 = FILL_AREA_STYLE('',(#889));
#889 = FILL_AREA_STYLE_COLOUR('',#879);
#890 = SURFACE_STYLE_RENDERING_WITH_PROPERTIES(.NORMAL_SHADING.,#879,(
    #891));
#891 = SURFACE_STYLE_TRANSPARENT(1.);
#892 = OVER_RIDING_STYLED_ITEM('overriding color',(#893),#57,#872);
#893 = PRESENTATION_STYLE_ASSIGNMENT((#894));
#894 = SURFACE_STYLE_USAGE(.BOTH.,#895);
#895 = SURFACE_SIDE_STYLE('',(#896,#899));
#896 = SURFACE_STYLE_FILL_AREA(#897);
#897 = FILL_AREA_STYLE('',(#898));
#898 = FILL_AREA_STYLE_COLOUR('',#879);
#899 = SURFACE_STYLE_RENDERING_WITH_PROPERTIES(.NORMAL_SHADING.,#879,(
    #900));
#900 = SURFACE_STYLE_TRANSPARENT(1.);
#901 = OVER_RIDING_STYLED_ITEM('overriding color',(#902),#88,#872);
#902 = PRESENTATION_STYLE_ASSIGNMENT((#903));
#903 = SURFACE_STYLE_USAGE(.BOTH.,#904);
#904 = SURFACE_SIDE_STYLE('',(#905));
#905 = SURFACE_STYLE_FILL_AREA(#906);
#906 = FILL_AREA_STYLE('',(#907));
#907 = FILL_AREA_STYLE_COLOUR('',#908);
#908 = COLOUR_RGB('',0.129411774038,0.129411774038,0.129411774038);
#909 = OVER_RIDING_STYLED_ITEM('overriding color',(#910),#248,#872);
#910 = PRESENTATION_STYLE_ASSIGNMENT((#911));
#911 = SURFACE_STYLE_USAGE(.BOTH.,#912);
#912 = SURFACE_SIDE_STYLE('',(#913,#916));
#913 = SURFACE_STYLE_FILL_AREA(#914);
#914 = FILL_AREA_STYLE('',(#915));
#915 = FILL_AREA_STYLE_COLOUR('',#879);
#916 = SURFACE_STYLE_RENDERING_WITH_PROPERTIES(.NORMAL_SHADING.,#879,(
    #917));
#917 = SURFACE_STYLE_TRANSPARENT(1.);
#918 = OVER_RIDING_STYLED_ITEM('overriding color',(#919),#272,#872);
#919 = PRESENTATION_STYLE_ASSIGNMENT((#920));
#920 = SURFACE_STYLE_USAGE(.BOTH.,#921);
#921 = SURFACE_SIDE_STYLE('',(#922,#925));
#922 = SURFACE_STYLE_FILL_AREA(#923);
#923 = FILL_AREA_STYLE('',(#924));
#924 = FILL_AREA_STYLE_COLOUR('',#879);
#925 = SURFACE_STYLE_RENDERING_WITH_PROPERTIES(.NORMAL_SHADING.,#879,(
    #926));
#926 = SURFACE_STYLE_TRANSPARENT(1.);
#927 = OVER_RIDING_STYLED_ITEM('overriding color',(#928),#289,#872);
#928 = PRESENTATION_STYLE_ASSIGNMENT((#929));
#929 = SURFACE_STYLE_USAGE(.BOTH.,#930);
#930 = SURFACE_SIDE_STYLE('',(#931,#934));
#931 = SURFACE_STYLE_FILL_AREA(#932);
#932 = FILL_AREA_STYLE('',(#933));
#933 = FILL_AREA_STYLE_COLOUR('',#879);
#934 = SURFACE_STYLE_RENDERING_WITH_PROPERTIES(.NORMAL_SHADING.,#879,(
    #935));
#935 = SURFACE_STYLE_TRANSPARENT(1.);
#936 = OVER_RIDING_STYLED_ITEM('overriding color',(#937),#301,#872);
#937 = PRESENTATION_STYLE_ASSIGNMENT((#938));
#938 = SURFACE_STYLE_USAGE(.BOTH.,#939);
#939 = SURFACE_SIDE_STYLE('',(#940));
#940 = SURFACE_STYLE_FILL_AREA(#941);
#941 = FILL_AREA_STYLE('',(#942));
#942 = FILL_AREA_STYLE_COLOUR('',#908);
#943 = OVER_RIDING_STYLED_ITEM('overriding color',(#944),#332,#872);
#944 = PRESENTATION_STYLE_ASSIGNMENT((#945));
#945 = SURFACE_STYLE_USAGE(.BOTH.,#946);
#946 = SURFACE_SIDE_STYLE('',(#947));
#947 = SURFACE_STYLE_FILL_AREA(#948);
#948 = FILL_AREA_STYLE('',(#949));
#949 = FILL_AREA_STYLE_COLOUR('',#908);
#950 = OVER_RIDING_STYLED_ITEM('overriding color',(#951),#388,#872);
#951 = PRESENTATION_STYLE_ASSIGNMENT((#952));
#952 = SURFACE_STYLE_USAGE(.BOTH.,#953);
#953 = SURFACE_SIDE_STYLE('',(#954));
#954 = SURFACE_STYLE_FILL_AREA(#955);
#955 = FILL_AREA_STYLE('',(#956));
#956 = FILL_AREA_STYLE_COLOUR('',#908);
#957 = OVER_RIDING_STYLED_ITEM('overriding color',(#958),#444,#872);
#958 = PRESENTATION_STYLE_ASSIGNMENT((#959));
#959 = SURFACE_STYLE_USAGE(.BOTH.,#960);
#960 = SURFACE_SIDE_STYLE('',(#961));
#961 = SURFACE_STYLE_FILL_AREA(#962);
#962 = FILL_AREA_STYLE('',(#963));
#963 = FILL_AREA_STYLE_COLOUR('',#908);
#964 = OVER_RIDING_STYLED_ITEM('overriding color',(#965),#461,#872);
#965 = PRESENTATION_STYLE_ASSIGNMENT((#966));
#966 = SURFACE_STYLE_USAGE(.BOTH.,#967);
#967 = SURFACE_SIDE_STYLE('',(#968,#971));
#968 = SURFACE_STYLE_FILL_AREA(#969);
#969 = FILL_AREA_STYLE('',(#970));
#970 = FILL_AREA_STYLE_COLOUR('',#879);
#971 = SURFACE_STYLE_RENDERING_WITH_PROPERTIES(.NORMAL_SHADING.,#879,(
    #972));
#972 = SURFACE_STYLE_TRANSPARENT(1.);
#973 = OVER_RIDING_STYLED_ITEM('overriding color',(#974),#492,#872);
#974 = PRESENTATION_STYLE_ASSIGNMENT((#975));
#975 = SURFACE_STYLE_USAGE(.BOTH.,#976);
#976 = SURFACE_SIDE_STYLE('',(#977,#980));
#977 = SURFACE_STYLE_FILL_AREA(#978);
#978 = FILL_AREA_STYLE('',(#979));
#979 = FILL_AREA_STYLE_COLOUR('',#879);
#980 = SURFACE_STYLE_RENDERING_WITH_PROPERTIES(.NORMAL_SHADING.,#879,(
    #981));
#981 = SURFACE_STYLE_TRANSPARENT(1.);
#982 = OVER_RIDING_STYLED_ITEM('overriding color',(#983),#516,#872);
#983 = PRESENTATION_STYLE_ASSIGNMENT((#984));
#984 = SURFACE_STYLE_USAGE(.BOTH.,#985);
#985 = SURFACE_SIDE_STYLE('',(#986,#989));
#986 = SURFACE_STYLE_FILL_AREA(#987);
#987 = FILL_AREA_STYLE('',(#988));
#988 = FILL_AREA_STYLE_COLOUR('',#879);
#989 = SURFACE_STYLE_RENDERING_WITH_PROPERTIES(.NORMAL_SHADING.,#879,(
    #990));
#990 = SURFACE_STYLE_TRANSPARENT(1.);
#991 = OVER_RIDING_STYLED_ITEM('overriding color',(#992),#540,#872);
#992 = PRESENTATION_STYLE_ASSIGNMENT((#993));
#993 = SURFACE_STYLE_USAGE(.BOTH.,#994);
#994 = SURFACE_SIDE_STYLE('',(#995,#998));
#995 = SURFACE_STYLE_FILL_AREA(#996);
#996 = FILL_AREA_STYLE('',(#997));
#997 = FILL_AREA_STYLE_COLOUR('',#879);
#998 = SURFACE_STYLE_RENDERING_WITH_PROPERTIES(.NORMAL_SHADING.,#879,(
    #999));
#999 = SURFACE_STYLE_TRANSPARENT(1.);
#1000 = OVER_RIDING_STYLED_ITEM('overriding color',(#1001),#557,#872);
#1001 = PRESENTATION_STYLE_ASSIGNMENT((#1002));
#1002 = SURFACE_STYLE_USAGE(.BOTH.,#1003);
#1003 = SURFACE_SIDE_STYLE('',(#1004,#1007));
#1004 = SURFACE_STYLE_FILL_AREA(#1005);
#1005 = FILL_AREA_STYLE('',(#1006));
#1006 = FILL_AREA_STYLE_COLOUR('',#879);
#1007 = SURFACE_STYLE_RENDERING_WITH_PROPERTIES(.NORMAL_SHADING.,#879,(
    #1008));
#1008 = SURFACE_STYLE_TRANSPARENT(1.);
#1009 = OVER_RIDING_STYLED_ITEM('overriding color',(#1010),#588,#872);
#1010 = PRESENTATION_STYLE_ASSIGNMENT((#1011));
#1011 = SURFACE_STYLE_USAGE(.BOTH.,#1012);
#1012 = SURFACE_SIDE_STYLE('',(#1013,#1016));
#1013 = SURFACE_STYLE_FILL_AREA(#1014);
#1014 = FILL_AREA_STYLE('',(#1015));
#1015 = FILL_AREA_STYLE_COLOUR('',#879);
#1016 = SURFACE_STYLE_RENDERING_WITH_PROPERTIES(.NORMAL_SHADING.,#879,(
    #1017));
#1017 = SURFACE_STYLE_TRANSPARENT(1.);
#1018 = OVER_RIDING_STYLED_ITEM('overriding color',(#1019),#612,#872);
#1019 = PRESENTATION_STYLE_ASSIGNMENT((#1020));
#1020 = SURFACE_STYLE_USAGE(.BOTH.,#1021);
#1021 = SURFACE_SIDE_STYLE('',(#1022,#1025));
#1022 = SURFACE_STYLE_FILL_AREA(#1023);
#1023 = FILL_AREA_STYLE('',(#1024));
#1024 = FILL_AREA_STYLE_COLOUR('',#879);
#1025 = SURFACE_STYLE_RENDERING_WITH_PROPERTIES(.NORMAL_SHADING.,#879,(
    #1026));
#1026 = SURFACE_STYLE_TRANSPARENT(1.);
#1027 = OVER_RIDING_STYLED_ITEM('overriding color',(#1028),#636,#872);
#1028 = PRESENTATION_STYLE_ASSIGNMENT((#1029));
#1029 = SURFACE_STYLE_USAGE(.BOTH.,#1030);
#1030 = SURFACE_SIDE_STYLE('',(#1031,#1034));
#1031 = SURFACE_STYLE_FILL_AREA(#1032);
#1032 = FILL_AREA_STYLE('',(#1033));
#1033 = FILL_AREA_STYLE_COLOUR('',#879);
#1034 = SURFACE_STYLE_RENDERING_WITH_PROPERTIES(.NORMAL_SHADING.,#879,(
    #1035));
#1035 = SURFACE_STYLE_TRANSPARENT(1.);
#1036 = OVER_RIDING_STYLED_ITEM('overriding color',(#1037),#653,#872);
#1037 = PRESENTATION_STYLE_ASSIGNMENT((#1038));
#1038 = SURFACE_STYLE_USAGE(.BOTH.,#1039);
#1039 = SURFACE_SIDE_STYLE('',(#1040,#1043));
#1040 = SURFACE_STYLE_FILL_AREA(#1041);
#1041 = FILL_AREA_STYLE('',(#1042));
#1042 = FILL_AREA_STYLE_COLOUR('',#879);
#1043 = SURFACE_STYLE_RENDERING_WITH_PROPERTIES(.NORMAL_SHADING.,#879,(
    #1044));
#1044 = SURFACE_STYLE_TRANSPARENT(1.);
#1045 = OVER_RIDING_STYLED_ITEM('overriding color',(#1046),#684,#872);
#1046 = PRESENTATION_STYLE_ASSIGNMENT((#1047));
#1047 = SURFACE_STYLE_USAGE(.BOTH.,#1048);
#1048 = SURFACE_SIDE_STYLE('',(#1049,#1052));
#1049 = SURFACE_STYLE_FILL_AREA(#1050);
#1050 = FILL_AREA_STYLE('',(#1051));
#1051 = FILL_AREA_STYLE_COLOUR('',#879);
#1052 = SURFACE_STYLE_RENDERING_WITH_PROPERTIES(.NORMAL_SHADING.,#879,(
    #1053));
#1053 = SURFACE_STYLE_TRANSPARENT(1.);
#1054 = OVER_RIDING_STYLED_ITEM('overriding color',(#1055),#708,#872);
#1055 = PRESENTATION_STYLE_ASSIGNMENT((#1056));
#1056 = SURFACE_STYLE_USAGE(.BOTH.,#1057);
#1057 = SURFACE_SIDE_STYLE('',(#1058,#1061));
#1058 = SURFACE_STYLE_FILL_AREA(#1059);
#1059 = FILL_AREA_STYLE('',(#1060));
#1060 = FILL_AREA_STYLE_COLOUR('',#879);
#1061 = SURFACE_STYLE_RENDERING_WITH_PROPERTIES(.NORMAL_SHADING.,#879,(
    #1062));
#1062 = SURFACE_STYLE_TRANSPARENT(1.);
#1063 = OVER_RIDING_STYLED_ITEM('overriding color',(#1064),#732,#872);
#1064 = PRESENTATION_STYLE_ASSIGNMENT((#1065));
#1065 = SURFACE_STYLE_USAGE(.BOTH.,#1066);
#1066 = SURFACE_SIDE_STYLE('',(#1067,#1070));
#1067 = SURFACE_STYLE_FILL_AREA(#1068);
#1068 = FILL_AREA_STYLE('',(#1069));
#1069 = FILL_AREA_STYLE_COLOUR('',#879);
#1070 = SURFACE_STYLE_RENDERING_WITH_PROPERTIES(.NORMAL_SHADING.,#879,(
    #1071));
#1071 = SURFACE_STYLE_TRANSPARENT(1.);
#1072 = OVER_RIDING_STYLED_ITEM('overriding color',(#1073),#749,#872);
#1073 = PRESENTATION_STYLE_ASSIGNMENT((#1074));
#1074 = SURFACE_STYLE_USAGE(.BOTH.,#1075);
#1075 = SURFACE_SIDE_STYLE('',(#1076));
#1076 = SURFACE_STYLE_FILL_AREA(#1077);
#1077 = FILL_AREA_STYLE('',(#1078));
#1078 = FILL_AREA_STYLE_COLOUR('',#908);
#1079 = OVER_RIDING_STYLED_ITEM('overriding color',(#1080),#766,#872);
#1080 = PRESENTATION_STYLE_ASSIGNMENT((#1081));
#1081 = SURFACE_STYLE_USAGE(.BOTH.,#1082);
#1082 = SURFACE_SIDE_STYLE('',(#1083));
#1083 = SURFACE_STYLE_FILL_AREA(#1084);
#1084 = FILL_AREA_STYLE('',(#1085));
#1085 = FILL_AREA_STYLE_COLOUR('',#908);
#1086 = OVER_RIDING_STYLED_ITEM('overriding color',(#1087),#783,#872);
#1087 = PRESENTATION_STYLE_ASSIGNMENT((#1088));
#1088 = SURFACE_STYLE_USAGE(.BOTH.,#1089);
#1089 = SURFACE_SIDE_STYLE('',(#1090));
#1090 = SURFACE_STYLE_FILL_AREA(#1091);
#1091 = FILL_AREA_STYLE('',(#1092));
#1092 = FILL_AREA_STYLE_COLOUR('',#908);
#1093 = OVER_RIDING_STYLED_ITEM('overriding color',(#1094),#800,#872);
#1094 = PRESENTATION_STYLE_ASSIGNMENT((#1095));
#1095 = SURFACE_STYLE_USAGE(.BOTH.,#1096);
#1096 = SURFACE_SIDE_STYLE('',(#1097));
#1097 = SURFACE_STYLE_FILL_AREA(#1098);
#1098 = FILL_AREA_STYLE('',(#1099));
#1099 = FILL_AREA_STYLE_COLOUR('',#908);
#1100 = OVER_RIDING_STYLED_ITEM('overriding color',(#1101),#817,#872);
#1101 = PRESENTATION_STYLE_ASSIGNMENT((#1102));
#1102 = SURFACE_STYLE_USAGE(.BOTH.,#1103);
#1103 = SURFACE_SIDE_STYLE('',(#1104));
#1104 = SURFACE_STYLE_FILL_AREA(#1105);
#1105 = FILL_AREA_STYLE('',(#1106));
#1106 = FILL_AREA_STYLE_COLOUR('',#908);
#1107 = OVER_RIDING_STYLED_ITEM('overriding color',(#1108),#829,#872);
#1108 = PRESENTATION_STYLE_ASSIGNMENT((#1109));
#1109 = SURFACE_STYLE_USAGE(.BOTH.,#1110);
#1110 = SURFACE_SIDE_STYLE('',(#1111,#1114));
#1111 = SURFACE_STYLE_FILL_AREA(#1112);
#1112 = FILL_AREA_STYLE('',(#1113));
#1113 = FILL_AREA_STYLE_COLOUR('',#879);
#1114 = SURFACE_STYLE_RENDERING_WITH_PROPERTIES(.NORMAL_SHADING.,#879,(
    #1115));
#1115 = SURFACE_STYLE_TRANSPARENT(1.);
#1116 = OVER_RIDING_STYLED_ITEM('overriding color',(#1117),#841,#872);
#1117 = PRESENTATION_STYLE_ASSIGNMENT((#1118));
#1118 = SURFACE_STYLE_USAGE(.BOTH.,#1119);
#1119 = SURFACE_SIDE_STYLE('',(#1120,#1123));
#1120 = SURFACE_STYLE_FILL_AREA(#1121);
#1121 = FILL_AREA_STYLE('',(#1122));
#1122 = FILL_AREA_STYLE_COLOUR('',#879);
#1123 = SURFACE_STYLE_RENDERING_WITH_PROPERTIES(.NORMAL_SHADING.,#879,(
    #1124));
#1124 = SURFACE_STYLE_TRANSPARENT(1.);
#1125 = OVER_RIDING_STYLED_ITEM('overriding color',(#1126),#853,#872);
#1126 = PRESENTATION_STYLE_ASSIGNMENT((#1127));
#1127 = SURFACE_STYLE_USAGE(.BOTH.,#1128);
#1128 = SURFACE_SIDE_STYLE('',(#1129,#1132));
#1129 = SURFACE_STYLE_FILL_AREA(#1130);
#1130 = FILL_AREA_STYLE('',(#1131));
#1131 = FILL_AREA_STYLE_COLOUR('',#879);
#1132 = SURFACE_STYLE_RENDERING_WITH_PROPERTIES(.NORMAL_SHADING.,#879,(
    #1133));
#1133 = SURFACE_STYLE_TRANSPARENT(1.);
ENDSEC;
END-ISO-10303-21;
